<?xml version="1.0" standalone="no"?>
<!DOCTYPE svg PUBLIC "-//W3C//DTD SVG 20010904//EN"
 "http://www.w3.org/TR/2001/REC-SVG-20010904/DTD/svg10.dtd">
<svg version="1.0" xmlns="http://www.w3.org/2000/svg"
 width="356.000000pt" height="356.000000pt" viewBox="0 0 356.000000 356.000000"
 preserveAspectRatio="xMidYMid meet">
<metadata>
Created by potrace 1.11, written by Peter Selinger 2001-2013
</metadata>
<g transform="translate(0.000000,356.000000) scale(0.100000,-0.100000)"
fill="#000000" stroke="none">
<path d="M0 2716 l0 -844 30 28 c17 15 30 32 30 37 0 4 9 14 21 21 15 10 19
20 15 38 -4 16 -2 24 7 24 8 0 19 11 26 24 7 13 32 33 55 45 33 16 49 33 69
73 15 30 27 58 27 64 0 7 7 17 15 24 9 7 15 29 15 52 0 44 17 84 49 112 12 11
21 31 21 48 0 16 6 39 14 51 8 12 27 58 42 102 15 44 40 97 55 117 16 20 29
41 29 47 0 12 63 61 78 61 7 0 12 6 12 13 0 17 42 37 76 37 17 0 28 7 31 19 3
11 11 22 19 25 8 3 14 13 14 23 0 10 3 13 9 8 5 -6 11 -42 15 -81 5 -57 3 -74
-9 -84 -17 -14 -20 -80 -4 -80 6 0 8 7 5 15 -8 21 41 40 60 24 17 -14 18 -63
2 -76 -26 -20 -67 -21 -84 -2 -10 11 -27 19 -39 19 -26 0 -59 -33 -52 -52 4
-9 6 -8 6 3 1 9 16 20 36 26 32 10 35 9 35 -9 0 -10 5 -28 11 -39 8 -16 7 -25
-7 -40 -18 -20 -54 -26 -54 -9 0 6 -4 10 -10 10 -5 0 -10 -9 -10 -20 0 -11
-12 -26 -29 -35 -30 -15 -34 -22 -46 -84 -6 -29 -5 -33 10 -28 9 4 20 7 25 7
4 0 6 8 3 18 -6 24 30 54 59 50 19 -2 23 -10 26 -45 2 -28 7 -40 15 -37 18 7
49 -69 42 -99 -6 -22 -3 -25 29 -31 43 -8 48 -26 7 -26 -23 0 -28 -4 -24 -18
7 -30 -22 -45 -72 -39 -25 4 -47 2 -50 -3 -3 -6 -15 -10 -27 -10 -16 0 -19 5
-15 23 16 65 30 158 24 164 -4 3 -16 -2 -28 -13 -20 -18 -21 -25 -15 -169 4
-82 9 -167 12 -187 7 -43 -12 -53 -22 -12 -7 28 -46 48 -75 39 -15 -5 -19 -1
-19 15 0 12 -7 28 -15 36 -13 14 -15 13 -15 -5 0 -12 -6 -21 -15 -21 -22 0
-18 -40 7 -67 l21 -23 -21 -23 c-19 -20 -22 -35 -22 -105 0 -64 3 -84 15 -88
17 -7 20 -40 5 -49 -6 -3 -10 -26 -10 -51 0 -44 0 -44 34 -44 43 0 57 19 28
38 -15 10 -22 25 -22 46 0 23 3 27 10 16 8 -12 13 -13 29 -3 23 15 34 -3 33
-54 0 -18 4 -33 9 -33 5 0 9 36 9 81 l0 81 -40 -4 c-22 -2 -40 -1 -40 2 0 11
57 28 111 34 60 6 73 0 81 -39 3 -17 11 -20 58 -19 70 2 280 13 300 17 21 3
55 39 55 57 0 8 6 14 13 12 8 -1 11 2 8 7 -12 18 22 29 106 33 48 2 90 7 93
10 3 3 1 63 -4 134 -6 71 -12 170 -16 219 -3 50 -10 158 -15 240 -6 83 -19
290 -31 460 -11 171 -24 375 -29 455 -5 80 -10 148 -10 153 0 4 -272 7 -605 7
l-605 0 0 -844z m991 -194 c-16 -5 -13 -22 4 -22 8 0 15 -7 15 -16 0 -11 -6
-14 -20 -9 -12 4 -27 1 -35 -5 -12 -10 -16 -9 -19 1 -14 40 -10 53 19 68 17 9
32 21 35 26 2 6 6 -1 8 -15 2 -13 -1 -26 -7 -28z m269 -242 c0 -5 -2 -10 -4
-10 -3 0 -8 5 -11 10 -3 6 -1 10 4 10 6 0 11 -4 11 -10z m-322 -39 c20 -12 11
-57 -10 -53 -9 1 -19 -6 -23 -18 -7 -21 -39 -27 -50 -10 -4 6 -2 17 4 24 6 7
9 20 6 27 -3 8 4 19 17 25 29 15 40 16 56 5z m106 -16 c49 0 41 -21 -9 -24
-40 -2 -45 0 -45 19 0 14 4 19 12 13 7 -4 26 -7 42 -8z m-486 -307 c-12 -22
-13 -22 -16 -2 -1 11 3 34 9 50 l13 29 4 -27 c2 -15 -3 -37 -10 -50z m74 -6
c10 -7 18 -19 18 -26 0 -7 11 -18 25 -24 15 -7 25 -20 25 -33 0 -17 -4 -19
-17 -13 -10 4 -49 10 -86 12 -37 2 -67 7 -65 10 20 41 73 111 77 101 2 -8 12
-20 23 -27z m373 20 c13 -1 19 -32 6 -32 -5 0 -13 5 -16 10 -4 6 -10 8 -15 5
-4 -3 -15 -2 -24 1 -13 5 -14 10 -5 20 7 9 17 11 28 5 9 -5 21 -9 26 -9z
m-205 -87 c0 -17 -22 -25 -49 -18 -26 7 -27 20 -3 25 38 8 52 6 52 -7z m-13
-41 c-3 -3 -12 -4 -19 -1 -8 3 -5 6 6 6 11 1 17 -2 13 -5z"/>
<path d="M940 2499 c0 -5 5 -7 10 -4 6 3 10 8 10 11 0 2 -4 4 -10 4 -5 0 -10
-5 -10 -11z"/>
<path d="M1320 3551 c0 -25 40 -500 45 -526 5 -32 44 -487 125 -1465 28 -333
65 -773 83 -977 25 -292 30 -373 20 -373 -7 0 -13 -6 -13 -14 0 -8 -4 -16 -8
-18 -4 -1 -21 -21 -37 -43 -48 -64 -68 -85 -81 -85 -6 0 -40 -9 -75 -21 -35
-11 -74 -18 -86 -16 -12 2 -20 0 -17 -4 3 -5 106 -9 228 -9 l223 0 -7 40 c-4
22 -14 48 -22 58 -9 9 -18 29 -22 43 -5 22 2 34 44 73 28 26 50 53 50 61 0 22
18 27 25 6 13 -41 71 -37 81 5 8 30 -3 106 -16 114 -11 7 16 50 31 50 5 0 9
-13 9 -28 0 -44 28 -127 49 -146 12 -11 27 -15 39 -12 37 12 46 53 47 210 l2
149 26 13 c14 8 28 11 30 7 3 -5 8 -81 12 -171 5 -124 4 -166 -5 -178 -7 -8
-10 -17 -7 -20 12 -12 106 8 121 25 18 20 37 113 31 157 -2 16 -6 50 -10 76
-3 26 -15 58 -26 72 -18 24 -19 27 -4 55 9 19 15 57 15 101 0 59 4 77 26 110
15 22 29 38 32 35 11 -11 42 -579 32 -589 -19 -19 -10 -26 30 -26 40 0 49 7
30 26 -16 16 -46 603 -32 625 9 14 8 20 -5 27 -14 9 -14 12 3 35 12 17 29 26
47 27 31 0 32 2 15 31 -11 18 -10 23 11 40 13 10 27 19 32 19 13 0 11 -58 -3
-62 -6 -2 -8 -10 -4 -16 5 -8 21 -10 49 -6 52 8 57 12 34 28 -17 13 -37 90
-29 114 2 6 10 12 17 12 8 0 22 11 33 25 l20 25 6 -31 c10 -49 7 -139 -4 -139
-5 0 -10 -7 -10 -15 0 -10 10 -15 29 -15 33 0 48 15 33 33 -5 7 -12 58 -16
113 -5 89 -4 105 12 124 18 22 18 21 36 -72 33 -174 37 -188 53 -188 12 0 14
8 10 33 -3 17 -9 95 -13 173 -6 125 -5 142 10 147 10 4 16 18 16 41 0 49 29
158 47 176 14 13 15 -14 10 -259 -4 -214 -8 -275 -18 -282 -24 -14 5 -32 40
-24 34 7 37 11 19 29 -8 8 -12 33 -10 69 4 52 6 57 27 57 19 0 24 -7 30 -45 3
-26 3 -59 0 -75 -7 -30 -6 -30 39 -30 47 0 59 13 31 34 -10 8 -30 101 -64 299
l-49 289 22 39 c12 21 34 44 50 51 27 11 31 9 65 -30 20 -23 42 -42 49 -42 6
0 12 -3 12 -7 0 -5 20 -29 45 -55 36 -38 50 -65 74 -143 17 -52 31 -111 31
-130 0 -19 4 -35 9 -35 5 0 7 -17 4 -38 -3 -21 2 -121 11 -222 9 -102 25 -297
36 -435 28 -353 31 -385 39 -385 6 0 -6 177 -55 798 -16 206 -15 264 3 216 3
-10 13 -23 20 -27 7 -5 11 -12 8 -17 -3 -5 -1 -11 5 -15 6 -4 8 -10 5 -15 -3
-4 2 -10 10 -13 10 -5 13 -17 9 -48 l-5 -43 21 25 c20 22 20 23 10 2 -11 -24
-4 -73 12 -73 5 0 6 -5 2 -12 -4 -6 -8 -24 -8 -38 l-1 -27 28 26 c15 14 27 32
27 38 0 7 6 13 14 13 8 0 17 12 21 27 3 15 9 23 13 17 4 -5 14 -10 22 -12 8
-2 22 -9 30 -17 8 -7 25 -16 38 -19 12 -4 22 -13 22 -21 0 -7 3 -20 6 -28 3
-8 -2 -22 -11 -31 -9 -9 -14 -20 -11 -24 3 -5 -1 -30 -9 -57 -8 -26 -15 -62
-16 -79 -1 -29 -1 -30 -8 -6 -6 23 -8 23 -14 6 -4 -10 -10 -16 -13 -13 -8 8
16 87 26 87 6 0 10 5 10 10 0 6 -7 10 -15 10 -8 0 -15 -8 -15 -17 0 -15 -2
-16 -10 -3 -11 17 -11 14 -13 -47 -1 -42 -1 -42 -19 -23 -20 21 -24 40 -8 40
6 0 10 -7 10 -17 0 -9 2 -14 5 -11 3 3 2 20 -2 38 -6 33 -6 33 -15 9 l-10 -24
-14 30 c-8 17 -12 22 -9 13 2 -10 0 -18 -5 -18 -6 0 -10 -4 -10 -10 0 -5 5 -9
12 -7 6 1 14 -6 16 -17 2 -11 0 -16 -7 -12 -6 4 -11 0 -12 -11 0 -10 -2 -28
-5 -40 -2 -13 1 -23 6 -23 6 0 10 -5 10 -11 0 -5 -4 -8 -8 -5 -5 3 -4 -20 1
-50 6 -29 14 -54 19 -54 17 0 58 49 58 70 0 12 -4 18 -10 15 -5 -3 -10 -1 -10
4 0 20 20 11 29 -11 10 -27 -3 -88 -29 -143 -11 -22 -17 -50 -14 -61 3 -12 -1
-28 -11 -37 -8 -9 -16 -20 -15 -24 0 -20 -13 -79 -21 -89 -5 -6 -13 -42 -18
-80 -11 -76 -37 -161 -56 -184 -7 -8 -15 -30 -18 -47 l-7 -33 150 0 150 0 0
1780 0 1780 -315 0 c-173 0 -315 -2 -315 -3 0 -2 18 -23 40 -46 28 -29 40 -51
40 -71 0 -16 11 -172 25 -347 13 -175 25 -340 26 -368 2 -71 -28 -172 -67
-227 -18 -26 -36 -59 -40 -74 -4 -15 -26 -47 -50 -72 -24 -25 -44 -52 -44 -59
0 -7 -8 -39 -19 -70 -26 -81 -41 -169 -41 -240 0 -50 -4 -67 -24 -90 -13 -15
-29 -46 -36 -68 -7 -22 -19 -48 -28 -57 -13 -16 -13 -22 1 -60 11 -28 14 -45
7 -52 -6 -6 -10 -20 -10 -32 0 -12 -6 -36 -14 -54 l-13 -32 -7 47 c-9 69 -7
115 4 115 6 0 10 7 10 16 0 13 -7 15 -32 10 -39 -8 -44 -12 -30 -29 14 -16 29
-236 15 -222 -5 6 -15 42 -22 80 -29 166 -29 165 -67 165 -34 0 -45 -15 -25
-36 6 -5 13 -79 17 -165 7 -156 7 -157 -19 -203 -14 -25 -28 -60 -32 -77 -4
-17 -10 -27 -14 -22 -5 4 -25 113 -47 241 -56 338 -65 339 -75 9 -4 -128 -8
-265 -8 -304 -1 -59 -4 -73 -16 -73 -9 0 -19 -10 -24 -22 -8 -22 -8 -22 -18
-3 -6 11 -23 86 -38 167 l-28 148 15 137 c9 76 19 148 23 161 8 23 7 23 -74
19 -82 -4 -106 -12 -84 -25 16 -10 35 -99 27 -124 -3 -12 -2 -18 3 -15 6 4 18
-38 28 -95 17 -90 18 -113 7 -222 -11 -105 -15 -123 -35 -139 l-22 -18 25 6
c20 6 23 5 13 -6 -7 -7 -13 -21 -13 -31 0 -15 9 -17 88 -13 84 5 86 4 67 -12
-12 -10 -27 -31 -35 -48 -8 -16 -21 -38 -29 -48 -13 -16 -16 -15 -42 15 -25
30 -31 33 -79 31 -62 -3 -68 -7 -48 -30 17 -20 32 -209 17 -219 -4 -2 -15 9
-24 26 -9 17 -20 28 -24 26 -5 -3 -11 16 -14 42 -7 63 -35 130 -58 143 -15 8
-24 5 -43 -14 -33 -33 -40 -88 -34 -268 l5 -148 -28 -30 c-15 -17 -30 -31 -32
-31 -3 0 -7 27 -9 60 -2 35 -11 66 -20 77 -14 16 -15 21 -3 43 17 30 20 186 4
227 -20 54 -47 73 -106 73 -39 0 -53 -4 -53 -14 0 -8 5 -16 11 -18 8 -3 18
-104 31 -303 20 -326 19 -333 -33 -360 l-26 -14 -7 92 c-13 174 -132 1548
-200 2317 -9 91 -20 230 -26 310 -6 80 -20 245 -31 367 -10 123 -19 230 -19
238 0 8 -4 15 -10 15 -5 0 -10 -4 -10 -9z m1742 -121 c12 -16 27 -30 34 -30 7
0 20 -10 28 -22 9 -13 33 -32 53 -43 56 -30 70 -62 53 -116 -7 -24 -16 -48
-19 -54 -3 -5 -6 -17 -8 -25 -4 -29 -25 -95 -39 -121 -7 -14 -11 -29 -7 -32 3
-4 -2 -18 -11 -31 -9 -14 -16 -38 -16 -53 0 -15 -9 -48 -20 -72 -11 -24 -20
-52 -20 -64 0 -11 -3 -18 -6 -14 -3 3 -17 135 -29 294 -13 158 -26 316 -30
351 -6 70 3 78 37 32z m-853 -1764 c7 -9 9 -39 5 -90 -4 -42 -8 -75 -10 -73
-8 8 -34 152 -30 164 7 17 21 17 35 -1z m387 -173 c8 -41 9 -72 4 -77 -6 -5
-12 -8 -14 -5 -5 5 -13 159 -7 153 2 -2 10 -34 17 -71z m238 -148 c20 -114 20
-115 -4 -115 -19 0 -20 7 -20 107 0 58 2 104 4 102 3 -2 12 -45 20 -94z m-409
-102 c5 -28 3 -33 -15 -33 -19 0 -20 6 -19 103 l1 102 14 -70 c7 -38 16 -85
19 -102z m-204 -136 c-6 -6 -11 -16 -11 -21 0 -6 4 -4 10 4 8 12 10 12 16 -3
7 -19 -13 -50 -27 -41 -11 6 -12 98 -2 134 6 22 8 20 16 -19 6 -29 5 -47 -2
-54z m219 56 c0 -21 -29 -53 -48 -53 -10 0 -13 7 -8 23 3 12 6 28 6 35 0 6 11
12 25 12 17 0 25 -6 25 -17z m-270 -324 c18 -119 9 -199 -20 -199 -15 0 -11
62 5 90 8 14 14 36 15 49 l0 23 -20 -23 -19 -24 -1 90 c0 81 1 88 16 74 8 -9
19 -45 24 -80z m-200 -63 c10 -101 9 -108 -12 -149 l-23 -42 -3 150 c-1 82 0
156 3 165 12 30 25 -16 35 -124z m-220 83 c16 -59 18 -215 3 -230 -7 -7 -15
-10 -19 -7 -12 12 -18 278 -6 278 6 0 16 -18 22 -41z m1651 -102 c-10 -9 -11
-8 -5 6 3 10 9 15 12 12 3 -3 0 -11 -7 -18z m42 -12 c-3 -9 -8 -14 -10 -11 -3
3 -2 9 2 15 9 16 15 13 8 -4z m-1262 -157 c17 -32 25 -239 10 -266 -27 -50
-32 -27 -46 196 -5 78 -3 92 9 92 9 0 21 -10 27 -22z m-418 -22 c3 -8 9 -57
13 -109 5 -78 4 -99 -9 -117 -16 -22 -16 -22 -21 11 -3 19 -7 78 -10 132 -4
78 -3 97 8 97 8 0 16 -6 19 -14z m227 -125 c0 -117 -8 -159 -25 -132 -3 6 -11
57 -17 115 -11 98 -11 106 7 126 10 11 22 20 27 20 4 0 8 -58 8 -129z m-141
-124 c1 -16 -3 -26 -9 -22 -5 3 -10 25 -9 48 0 33 2 38 9 22 5 -11 9 -33 9
-48z"/>
<path d="M1676 3538 c-15 -21 -16 -21 -16 -3 0 13 -3 16 -11 8 -7 -7 -7 -22
-2 -44 l9 -34 19 33 c11 17 23 32 27 32 4 0 8 7 8 15 0 22 -17 18 -34 -7z"/>
<path d="M1720 3549 c0 -5 5 -7 10 -4 6 3 10 8 10 11 0 2 -4 4 -10 4 -5 0 -10
-5 -10 -11z"/>
<path d="M2260 3424 c-327 -23 -632 -43 -677 -43 -86 -1 -113 -7 -113 -24 0
-6 27 -8 78 -4 42 4 271 20 507 37 237 17 522 37 634 45 112 8 208 15 212 15
5 0 9 5 9 10 0 13 51 15 -650 -36z"/>
<path d="M1637 3421 c-4 -17 -3 -21 5 -13 5 5 8 16 6 23 -3 8 -7 3 -11 -10z"/>
<path d="M2860 3343 c0 -8 -12 -10 -33 -6 -82 13 -89 -97 -19 -317 64 -200 76
-277 45 -287 -22 -8 -47 48 -52 120 -4 43 -11 72 -18 75 -10 3 -13 -15 -12
-70 1 -94 12 -176 22 -161 4 7 22 9 46 6 34 -5 41 -2 56 21 28 42 15 137 -40
306 -53 163 -70 280 -41 280 22 0 35 -36 42 -121 5 -47 11 -69 20 -69 10 0 12
23 7 108 -3 59 -9 111 -14 117 -6 5 -9 5 -9 -2z"/>
<path d="M2560 3316 c0 -8 4 -16 9 -18 6 -1 12 -61 15 -133 l5 -130 -29 140
c-16 77 -29 141 -30 143 0 1 -16 2 -35 2 -33 0 -48 -14 -25 -22 13 -4 44 -461
38 -555 l-4 -63 28 0 c29 0 35 9 19 26 -9 9 -37 451 -29 459 2 2 24 -102 48
-231 44 -230 53 -265 65 -252 3 3 -2 140 -11 303 -13 227 -14 302 -6 316 17
27 16 29 -23 29 -24 0 -35 -5 -35 -14z"/>
<path d="M2664 3315 c-4 -8 1 -24 10 -34 18 -20 20 -44 6 -72 -7 -12 -7 -19
-1 -19 34 0 42 132 8 138 -9 2 -20 -4 -23 -13z"/>
<path d="M2163 3295 c-47 -33 -39 -111 33 -339 49 -155 65 -248 44 -261 -9 -5
-21 1 -36 18 -17 20 -24 45 -29 102 -4 41 -11 75 -16 75 -10 0 -12 -116 -3
-184 4 -27 10 -42 14 -35 6 9 16 9 37 1 38 -13 58 -1 73 43 15 47 6 104 -46
265 -53 164 -74 274 -56 292 23 23 43 -15 54 -101 6 -44 15 -81 19 -81 10 0
12 106 3 174 -5 33 -10 43 -18 37 -7 -6 -17 -6 -26 -1 -20 13 -22 12 -47 -5z"/>
<path d="M2331 3296 c-7 -8 -17 -45 -23 -82 -12 -81 5 -363 28 -451 24 -92 58
-116 91 -66 16 24 18 52 17 218 0 264 -27 395 -79 395 -12 0 -28 -6 -34 -14z
m44 -25 c23 -74 46 -553 27 -565 -15 -9 -27 22 -35 89 -13 104 -27 410 -21
452 7 45 19 56 29 24z"/>
<path d="M2036 3291 c-3 -5 1 -14 9 -21 16 -14 19 -111 7 -270 l-7 -85 -22
170 c-15 111 -19 173 -13 179 19 19 10 26 -30 26 -40 0 -53 -13 -25 -24 13 -4
15 -34 15 -177 0 -95 -2 -170 -4 -168 -10 10 -48 314 -42 340 5 28 4 29 -29
29 -24 0 -35 -5 -35 -14 0 -8 4 -16 10 -18 5 -1 23 -95 40 -208 49 -342 51
-354 56 -377 2 -13 9 -23 14 -23 6 0 10 71 10 187 0 102 3 184 6 181 4 -5 53
-328 54 -360 0 -4 7 -5 15 -2 12 5 15 53 17 307 2 166 7 310 12 320 7 14 3 17
-22 17 -17 0 -33 -4 -36 -9z"/>
<path d="M1767 2975 c-3 -219 -9 -310 -17 -320 -11 -13 -7 -15 25 -15 37 0 38
1 21 19 -14 16 -16 30 -11 75 7 50 10 56 31 56 13 0 24 -2 24 -4 0 -2 5 -27
10 -56 7 -38 7 -57 -1 -67 -17 -19 -8 -23 33 -16 35 5 36 7 23 27 -7 11 -35
153 -61 314 -31 194 -51 292 -59 292 -9 0 -13 -77 -18 -305z m53 -65 c9 -55
15 -102 12 -105 -3 -3 -14 -5 -24 -5 -16 0 -18 10 -18 112 0 61 3 108 7 105 3
-4 14 -52 23 -107z"/>
<path d="M1535 3261 c-3 -6 -2 -11 4 -11 16 0 19 -25 37 -314 13 -210 14 -281
6 -284 -25 -8 -12 -29 16 -25 67 10 74 14 89 51 21 49 20 329 -1 451 -19 109
-38 135 -99 139 -25 2 -48 -2 -52 -7z m101 -57 c32 -110 46 -503 20 -540 -8
-10 -18 -15 -22 -11 -9 8 -19 151 -30 421 -6 149 -5 178 7 174 7 -2 19 -22 25
-44z"/>
<path d="M2424 2599 c-3 -6 -1 -15 7 -19 18 -12 48 -563 31 -590 -6 -10 -9
-19 -7 -21 2 -2 35 -3 74 -1 l71 4 0 41 c0 92 -13 177 -26 177 -10 0 -13 -21
-11 -89 2 -92 -10 -128 -34 -104 -12 12 -43 481 -36 561 l4 52 -33 0 c-18 0
-36 -5 -40 -11z"/>
<path d="M2247 2593 c-4 -3 -1 -13 7 -22 19 -23 50 -565 33 -592 -6 -10 -9
-20 -7 -22 3 -3 36 -2 74 2 l69 6 -2 93 c-2 97 -7 122 -22 122 -5 0 -9 -40 -9
-89 0 -68 -4 -92 -16 -102 -21 -17 -34 2 -34 51 0 19 -4 98 -10 175 -21 318
-22 353 -11 359 22 14 10 26 -27 26 -21 0 -42 -3 -45 -7z"/>
<path d="M2106 2288 c-4 -167 -12 -307 -17 -312 -20 -21 -9 -35 26 -34 22 1
35 6 35 15 0 7 -4 13 -10 13 -6 0 -10 27 -10 60 0 57 1 60 25 60 20 0 25 -6
31 -36 3 -19 4 -51 1 -70 l-6 -34 45 0 c47 0 52 5 30 29 -9 10 -35 131 -65
306 -28 159 -51 293 -51 297 0 5 -6 8 -13 8 -11 0 -15 -59 -21 -302z m54 -76
c9 -58 9 -87 2 -94 -23 -23 -32 5 -32 105 1 117 11 113 30 -11z"/>
<path d="M1910 2567 c0 -7 4 -17 10 -23 14 -14 42 -566 30 -578 -22 -22 -10
-36 29 -36 46 0 59 13 37 36 -9 8 -16 32 -16 52 0 20 -3 81 -7 135 -4 68 -3
97 5 97 6 0 14 -16 18 -36 3 -19 10 -32 14 -27 10 11 0 153 -11 153 -5 0 -9
-13 -9 -29 0 -37 -18 -50 -24 -19 -10 48 -16 257 -7 262 4 3 16 -1 26 -8 14
-10 19 -31 23 -95 4 -64 8 -81 20 -81 13 0 14 12 8 77 -3 42 -6 89 -6 105 l0
28 -70 0 c-51 0 -70 -4 -70 -13z"/>
<path d="M2386 1883 c-15 -4 -17 -11 -12 -41 3 -21 6 -43 6 -49 0 -7 11 -13
25 -13 16 0 25 6 25 15 0 8 -4 15 -9 15 -12 0 -10 43 2 51 5 4 6 12 3 18 -7
11 -9 12 -40 4z"/>
<path d="M2452 1839 c3 -51 4 -54 28 -51 34 5 38 11 18 26 -9 6 -18 25 -20 41
-1 16 -9 30 -16 33 -10 3 -12 -9 -10 -49z"/>
<path d="M2288 1874 c-3 -3 0 -26 6 -52 16 -62 38 -62 50 1 9 54 1 72 -20 43
-12 -17 -14 -18 -14 -3 0 17 -11 22 -22 11z"/>
<path d="M2016 1862 c-8 -13 -19 -112 -13 -112 3 0 13 7 21 16 9 8 16 11 16 5
0 -6 7 -11 16 -11 12 0 14 7 9 33 -15 67 -34 94 -49 69z"/>
<path d="M2122 1817 c3 -51 3 -52 33 -49 17 2 31 5 32 5 0 1 -1 23 -4 48 -5
43 -7 46 -35 47 -29 1 -29 0 -26 -51z"/>
<path d="M2206 1855 c-8 -23 5 -76 21 -82 26 -10 43 19 36 60 -4 30 -10 37
-28 37 -13 0 -25 -7 -29 -15z"/>
<path d="M1993 1682 c-37 -24 -50 -157 -34 -364 17 -225 40 -308 87 -308 37 0
55 33 65 117 9 83 -3 339 -21 432 -19 101 -57 149 -97 123z m47 -117 c14 -96
25 -432 15 -480 l-8 -40 -8 29 c-19 68 -47 504 -35 551 11 42 24 19 36 -60z"/>
<path d="M1748 1673 c-30 -5 -34 -13 -18 -29 10 -10 19 -129 36 -474 6 -111 4
-144 -6 -150 -7 -4 -9 -13 -6 -19 9 -13 65 -14 86 -1 12 8 12 11 -2 27 -20 23
-38 303 -19 303 20 0 28 -41 35 -170 8 -129 18 -160 56 -160 29 0 40 23 40 87
0 49 -3 63 -15 63 -11 0 -15 -14 -16 -57 l-2 -58 -8 45 c-4 25 -8 79 -8 120
-1 53 -7 87 -20 113 -17 34 -18 40 -4 79 11 30 14 66 10 119 -5 81 -23 128
-59 153 -22 16 -29 17 -80 9z m79 -69 c16 -56 16 -206 0 -229 -8 -10 -16 -14
-20 -9 -3 5 -8 72 -12 148 -7 116 -6 138 6 134 8 -3 19 -22 26 -44z"/>
<path d="M1160 1584 c-27 -4 -800 -50 -1012 -61 -71 -3 -128 -10 -128 -15 0
-6 34 -7 83 -4 139 11 903 55 1062 62 160 7 238 24 100 22 -44 0 -91 -3 -105
-4z"/>
<path d="M1168 1503 c-21 -3 -28 -10 -28 -26 1 -21 1 -21 15 -3 13 17 15 18
21 2 3 -9 4 -30 0 -46 -6 -32 1 -35 38 -21 14 5 16 10 8 15 -14 8 -16 66 -3
66 5 0 11 -6 14 -12 2 -7 8 -10 12 -6 4 4 5 14 2 23 -6 15 -23 16 -79 8z"/>
<path d="M1037 1494 c-17 -18 -6 -45 23 -55 17 -6 30 -15 30 -20 0 -12 -27
-11 -35 1 -9 15 -25 12 -25 -4 0 -14 41 -24 72 -18 19 4 31 29 21 45 -5 7 -8
21 -8 32 0 16 -8 21 -35 23 -20 2 -39 0 -43 -4z m63 -24 c0 -5 -6 -10 -14 -10
-8 0 -18 5 -21 10 -3 6 3 10 14 10 12 0 21 -4 21 -10z"/>
<path d="M808 1479 c-22 -13 -24 -62 -2 -83 18 -19 45 -21 62 -4 18 18 15 33
-4 18 -21 -18 -49 9 -39 39 7 23 25 27 43 9 9 -9 12 -8 12 8 0 23 -43 30 -72
13z"/>
<path d="M922 1478 c-15 -15 -15 -61 0 -76 7 -7 24 -12 38 -12 43 0 62 37 44
84 -7 19 -64 22 -82 4z m54 -24 c7 -27 -7 -50 -25 -40 -12 8 -15 49 -4 59 13
13 23 7 29 -19z"/>
<path d="M622 1463 c-13 -25 -3 -80 16 -88 23 -9 36 11 34 52 -4 50 -32 70
-50 36z"/>
<path d="M690 1430 c0 -36 4 -50 14 -50 15 0 30 45 21 60 -4 6 -1 10 4 10 6 0
11 7 11 15 0 9 -9 15 -25 15 -23 0 -25 -3 -25 -50z"/>
<path d="M363 1462 c-20 -3 -23 -9 -23 -53 0 -48 1 -49 30 -49 29 0 30 1 30
49 0 54 -4 59 -37 53z"/>
<path d="M433 1463 c-18 -7 -16 -78 2 -93 34 -28 65 56 33 88 -13 13 -16 13
-35 5z"/>
<path d="M500 1420 l0 -50 33 3 c31 3 32 4 28 42 -4 51 -7 55 -37 55 -22 0
-24 -4 -24 -50z"/>
<path d="M254 1448 c-4 -6 -2 -14 4 -16 7 -2 12 -19 12 -38 0 -24 5 -34 15
-34 10 0 15 10 15 34 0 19 5 38 10 41 6 4 8 11 5 16 -9 13 -52 11 -61 -3z"/>
<path d="M94 1404 l-7 -47 -18 24 c-10 13 -19 29 -19 35 0 7 -11 14 -25 16
l-25 5 0 -719 0 -718 515 0 515 1 0 21 c0 15 -5 19 -20 15 -10 -3 -24 1 -31 9
-6 8 -17 14 -24 14 -19 0 -24 34 -8 49 13 12 13 16 -1 29 -12 13 -18 14 -28 4
-9 -9 -18 -2 -40 33 -15 25 -28 52 -28 60 0 20 -37 38 -66 31 -19 -5 -24 -2
-24 11 0 10 -7 27 -15 37 -8 11 -15 26 -15 33 0 19 18 16 23 -5 4 -13 5 -11 6
6 1 13 -5 22 -14 22 -8 0 -15 7 -15 15 0 8 -4 15 -10 15 -5 0 -7 -7 -4 -15 4
-8 4 -15 0 -15 -9 0 -29 43 -32 72 -2 15 -12 36 -22 46 -24 24 -75 155 -76
196 -1 19 -6 30 -14 28 -7 -1 -17 10 -23 25 -22 59 -70 149 -94 177 -14 16
-25 33 -25 38 0 5 -11 26 -25 46 -14 20 -25 46 -25 57 0 15 -2 17 -9 6 -7 -11
-11 -9 -20 8 -6 11 -17 20 -23 18 -6 -1 -21 17 -33 40 -13 24 -25 37 -28 30
-2 -6 -12 4 -22 23 -10 19 -21 37 -25 40 -9 7 -32 51 -28 55 3 3 350 24 853
52 165 9 302 18 304 20 16 13 -30 14 -186 4 -98 -6 -295 -18 -438 -26 -143 -8
-328 -20 -412 -25 -150 -10 -153 -10 -178 12 -31 27 -34 52 -5 43 23 -7 25 2
9 58 -14 52 -36 48 -45 -9z m846 -1279 c0 -8 -4 -15 -10 -15 -5 0 -10 7 -10
15 0 8 5 15 10 15 6 0 10 -7 10 -15z m24 -91 c9 -23 4 -24 -16 -2 -14 14 -15
18 -4 18 8 0 17 -7 20 -16z"/>
<path d="M170 1413 c0 -47 12 -66 36 -61 15 2 20 14 22 51 3 46 3 47 -27 47
-29 0 -31 -2 -31 -37z"/>
<path d="M492 1170 c0 -14 2 -19 5 -12 2 6 2 18 0 25 -3 6 -5 1 -5 -13z"/>
<path d="M403 1160 c1 -11 5 -20 9 -20 11 0 10 28 -1 35 -6 3 -9 -4 -8 -15z"/>
<path d="M432 1160 c0 -14 2 -19 5 -12 2 6 2 18 0 25 -3 6 -5 1 -5 -13z"/>
<path d="M300 1150 c0 -11 4 -20 9 -20 5 0 7 9 4 20 -3 11 -7 20 -9 20 -2 0
-4 -9 -4 -20z"/>
<path d="M331 1154 c0 -11 3 -14 6 -6 3 7 2 16 -1 19 -3 4 -6 -2 -5 -13z"/>
<path d="M2993 1002 c-18 -2 -33 -5 -33 -6 0 -2 6 -16 14 -32 9 -19 18 -107
25 -252 7 -122 15 -252 18 -287 3 -44 1 -70 -7 -80 -11 -13 -8 -15 20 -15 27
0 31 3 24 18 -7 17 -36 464 -31 492 1 8 25 -99 52 -238 47 -244 57 -283 70
-271 3 3 -2 146 -12 318 -13 236 -14 317 -6 331 15 23 7 30 -34 30 -36 0 -40
-6 -19 -29 10 -11 15 -57 19 -156 l6 -140 -32 157 c-18 86 -34 158 -37 160 -3
2 -20 2 -37 0z"/>
<path d="M2828 989 c-28 -16 -38 -75 -38 -224 0 -157 20 -330 45 -392 31 -78
87 -59 101 34 9 63 -2 383 -16 458 -12 62 -34 114 -54 127 -14 10 -17 9 -38
-3z m41 -82 c23 -117 40 -527 22 -555 -25 -40 -44 89 -57 389 -7 155 -1 235
16 224 5 -3 13 -29 19 -58z"/>
<path d="M2706 983 c-4 -4 -22 -6 -40 -5 -26 3 -38 -2 -50 -20 -32 -45 -17
-145 55 -367 60 -184 64 -296 9 -246 -22 20 -40 87 -40 149 0 33 -4 46 -14 46
-12 0 -14 -16 -10 -92 8 -136 6 -133 58 -136 38 -2 48 2 66 25 19 24 22 36 17
93 -3 36 -26 129 -52 209 -53 166 -75 285 -57 303 24 24 44 -16 55 -106 7 -58
14 -86 23 -86 10 0 11 25 7 113 -5 108 -11 135 -27 120z"/>
<path d="M3390 970 c0 -11 -5 -20 -11 -20 -5 0 -7 -4 -4 -10 11 -19 23 -10 27
20 3 17 1 30 -4 30 -4 0 -8 -9 -8 -20z"/>
<path d="M2480 966 c0 -8 5 -16 11 -18 10 -3 35 -286 26 -295 -3 -2 -17 63
-31 144 -15 81 -29 154 -31 161 -6 17 -75 16 -75 -2 0 -8 4 -16 10 -18 13 -4
51 -610 39 -622 -14 -15 -11 -26 9 -26 29 0 47 17 35 32 -9 11 -35 380 -32
463 0 17 24 -84 52 -223 29 -139 56 -254 61 -255 11 -2 9 58 -9 387 -8 145
-10 245 -4 250 20 21 9 36 -26 36 -24 0 -35 -5 -35 -14z"/>
<path d="M562 945 c0 -16 2 -22 5 -12 2 9 2 23 0 30 -3 6 -5 -1 -5 -18z"/>
<path d="M513 915 c0 -22 2 -30 4 -17 2 12 2 30 0 40 -3 9 -5 -1 -4 -23z"/>
<path d="M481 924 c0 -11 3 -14 6 -6 3 7 2 16 -1 19 -3 4 -6 -2 -5 -13z"/>
<path d="M3410 910 c-8 -5 -12 -12 -9 -15 4 -3 12 1 19 10 14 17 11 19 -10 5z"/>
<path d="M622 830 c0 -14 2 -19 5 -12 2 6 2 18 0 25 -3 6 -5 1 -5 -13z"/>
<path d="M569 812 c9 -7 10 -11 2 -15 -7 -4 -8 -5 0 -3 15 2 13 20 -3 24 -10
3 -10 2 1 -6z"/>
<path d="M630 700 c0 -11 4 -20 9 -20 5 0 7 9 4 20 -3 11 -7 20 -9 20 -2 0 -4
-9 -4 -20z"/>
<path d="M600 691 c0 -5 5 -13 10 -16 6 -3 10 -2 10 4 0 5 -4 13 -10 16 -5 3
-10 2 -10 -4z"/>
<path d="M3343 645 c-3 -9 -3 -18 -1 -21 3 -3 8 4 11 16 6 23 -1 27 -10 5z"/>
<path d="M632 580 c0 -19 2 -27 5 -17 2 9 2 25 0 35 -3 9 -5 1 -5 -18z"/>
<path d="M662 580 c0 -14 2 -19 5 -12 2 6 2 18 0 25 -3 6 -5 1 -5 -13z"/>
<path d="M1235 540 c5 -15 3 -18 -9 -14 -12 5 -16 0 -16 -19 0 -31 17 -45 23
-20 4 17 5 17 6 1 1 -26 21 -22 21 3 0 21 0 21 20 -2 10 -13 19 -19 20 -12 0
14 -27 43 -41 43 -5 0 -9 9 -9 20 0 11 -5 20 -11 20 -6 0 -8 -9 -4 -20z"/>
<path d="M1337 499 c4 -13 8 -18 11 -10 2 7 -1 18 -6 23 -8 8 -9 4 -5 -13z"/>
<path d="M1311 494 c0 -11 3 -14 6 -6 3 7 2 16 -1 19 -3 4 -6 -2 -5 -13z"/>
<path d="M1360 500 c0 -5 5 -10 10 -10 6 0 10 5 10 10 0 6 -4 10 -10 10 -5 0
-10 -4 -10 -10z"/>
<path d="M891 484 c0 -11 3 -14 6 -6 3 7 2 16 -1 19 -3 4 -6 -2 -5 -13z"/>
<path d="M698 465 c2 -14 8 -23 12 -20 10 6 1 45 -10 45 -4 0 -5 -11 -2 -25z"/>
<path d="M728 465 c2 -14 6 -25 8 -25 2 0 4 11 4 25 0 14 -4 25 -9 25 -4 0 -6
-11 -3 -25z"/>
<path d="M758 450 c2 -22 6 -40 8 -40 2 0 4 18 4 40 0 22 -3 40 -8 40 -4 0 -6
-18 -4 -40z"/>
<path d="M787 470 c3 -11 7 -20 9 -20 2 0 4 9 4 20 0 11 -4 20 -9 20 -5 0 -7
-9 -4 -20z"/>
<path d="M861 474 c0 -11 3 -14 6 -6 3 7 2 16 -1 19 -3 4 -6 -2 -5 -13z"/>
<path d="M810 467 c0 -10 8 -17 18 -17 9 0 13 4 7 8 -5 4 -13 11 -17 16 -5 5
-8 2 -8 -7z"/>
<path d="M1282 452 c-1 -7 -6 -11 -11 -8 -5 4 -5 -10 -1 -31 5 -20 8 -41 7
-47 -1 -5 8 -10 21 -10 12 0 22 3 22 7 0 4 0 21 0 37 0 17 -5 30 -10 30 -6 0
-10 -6 -9 -12 5 -38 -5 -36 -11 2 -4 25 -8 39 -8 32z"/>
<path d="M1190 428 c-4 -12 -7 -27 -9 -39 0 -5 -5 -7 -11 -4 -5 3 -10 -3 -10
-15 0 -19 5 -21 42 -18 47 3 55 15 33 43 -14 20 -15 19 -22 -5 -7 -24 -8 -23
-14 10 -3 19 -8 32 -9 28z"/>
<path d="M1130 390 c0 -16 4 -30 8 -30 5 0 7 14 4 30 -2 17 -6 30 -8 30 -2 0
-4 -13 -4 -30z"/>
<path d="M1331 393 c1 -10 5 -29 9 -43 7 -22 8 -21 9 12 1 20 -3 40 -9 43 -5
3 -10 -2 -9 -12z"/>
<path d="M1360 401 c0 -13 20 -36 20 -23 0 6 5 12 11 12 6 0 9 -7 6 -14 -4
-10 -1 -13 9 -9 17 6 18 11 2 26 -14 13 -48 19 -48 8z"/>
<path d="M1032 355 c-1 -22 2 -35 6 -29 4 6 14 14 22 17 12 4 12 6 -2 6 -9 1
-19 11 -21 24 -2 12 -5 5 -5 -18z"/>
<path d="M1050 374 c0 -8 5 -12 10 -9 6 4 8 11 5 16 -9 14 -15 11 -15 -7z"/>
<path d="M800 361 c0 -11 5 -23 10 -26 6 -4 10 5 10 19 0 14 -4 26 -10 26 -5
0 -10 -9 -10 -19z"/>
<path d="M922 360 c0 -14 2 -19 5 -12 2 6 2 18 0 25 -3 6 -5 1 -5 -13z"/>
<path d="M952 360 c0 -14 2 -19 5 -12 2 6 2 18 0 25 -3 6 -5 1 -5 -13z"/>
<path d="M970 366 c0 -8 5 -18 10 -21 6 -3 10 3 10 14 0 12 -4 21 -10 21 -5 0
-10 -6 -10 -14z"/>
<path d="M777 350 c3 -11 7 -20 9 -20 2 0 4 9 4 20 0 11 -4 20 -9 20 -5 0 -7
-9 -4 -20z"/>
<path d="M841 353 c-1 -16 5 -23 17 -23 10 0 13 3 6 8 -6 4 -14 14 -17 22 -4
10 -6 8 -6 -7z"/>
<path d="M891 354 c0 -11 3 -14 6 -6 3 7 2 16 -1 19 -3 4 -6 -2 -5 -13z"/>
<path d="M1145 288 c-4 -13 -17 -36 -27 -51 -11 -16 -18 -31 -14 -34 9 -9 44
39 50 71 7 36 1 46 -9 14z"/>
<path d="M2885 234 c-145 -11 -355 -25 -920 -60 -190 -12 -238 -19 -243 -32
-5 -15 31 -14 403 18 179 15 963 70 1002 70 18 0 33 5 33 10 0 12 -57 11 -275
-6z"/>
<path d="M1113 192 c-20 -3 -23 -10 -23 -47 0 -36 3 -43 15 -39 12 5 14 15 9
40 -4 22 -2 34 5 34 6 0 11 -16 11 -35 0 -39 16 -48 23 -12 l4 22 2 -22 c1
-19 7 -23 36 -23 19 0 35 5 35 10 0 6 -6 10 -12 10 -9 0 -8 3 2 10 20 13 36
-16 20 -36 -9 -10 -10 -14 -1 -14 10 0 41 57 41 74 0 2 -19 3 -42 2 -36 -1
-43 -5 -49 -26 -7 -24 -7 -24 -8 -2 -1 12 -7 22 -16 22 -8 0 -15 6 -15 14 0
19 -9 23 -37 18z"/>
<path d="M1060 179 c0 -5 5 -7 10 -4 6 3 10 8 10 11 0 2 -4 4 -10 4 -5 0 -10
-5 -10 -11z"/>
<path d="M1310 146 c0 -19 5 -24 20 -23 26 2 23 40 -2 45 -13 3 -18 -3 -18
-22z"/>
<path d="M1360 144 c0 -14 4 -23 10 -19 5 3 7 12 3 20 -3 8 -1 15 5 15 5 0 12
-7 16 -15 3 -8 13 -15 23 -14 11 0 13 3 6 6 -7 2 -13 11 -13 19 0 8 -10 14
-25 14 -20 0 -25 -5 -25 -26z"/>
<path d="M2959 155 c-1 -3 -1 -14 -1 -25 0 -11 0 -36 1 -55 l1 -35 91 4 c49 2
92 6 94 8 3 2 2 28 -2 57 -4 34 -9 48 -14 39 -7 -9 -11 -10 -16 -2 -8 11 -152
20 -154 9z"/>
<path d="M965 130 c10 -34 14 -37 25 -20 7 11 10 12 10 2 0 -19 17 -6 23 17 3
15 0 19 -14 18 -11 -1 -19 -5 -19 -10 0 -5 -7 -3 -16 4 -15 12 -16 11 -9 -11z"/>
<path d="M1030 110 c0 -5 5 -10 10 -10 6 0 10 5 10 10 0 6 -4 10 -10 10 -5 0
-10 -4 -10 -10z"/>
<path d="M2232 111 c-37 -3 -66 -12 -71 -20 -5 -8 -16 -11 -25 -8 -12 5 -23
-3 -37 -28 -20 -34 -39 -46 -39 -24 0 5 -4 8 -9 5 -5 -3 -14 1 -21 9 -7 8 -9
15 -6 15 4 0 2 9 -4 19 -8 16 -26 20 -50 11 -3 -1 -13 -1 -24 0 -10 1 -23 -4
-27 -12 -7 -10 -9 -10 -9 0 0 6 -5 12 -12 12 -6 0 -8 -3 -5 -6 4 -4 -1 -20
-10 -35 -20 -34 -11 -49 15 -26 10 10 22 14 26 10 4 -5 6 -2 4 6 -2 7 3 16 11
19 8 2 11 0 7 -6 -3 -6 0 -13 6 -16 10 -5 10 -7 1 -12 -41 -19 8 -24 212 -24
l226 0 -3 57 -3 58 -45 1 c-25 1 -73 -1 -108 -5z m-75 -73 c-17 -11 -37 -10
-37 3 0 5 5 7 10 4 6 -3 13 1 16 10 5 13 9 14 15 4 5 -8 3 -17 -4 -21z"/>
<path d="M1150 89 c0 -5 5 -7 10 -4 6 3 10 8 10 11 0 2 -4 4 -10 4 -5 0 -10
-5 -10 -11z"/>
<path d="M2750 88 c-12 -8 -11 -9 4 -4 13 4 17 2 13 -7 -3 -8 -2 -29 3 -48 8
-33 8 -33 9 13 1 50 -7 63 -29 46z"/>
<path d="M2595 80 c-3 -5 -1 -10 4 -10 6 0 11 5 11 10 0 6 -2 10 -4 10 -3 0
-8 -4 -11 -10z"/>
<path d="M2427 60 c4 -16 8 -18 19 -9 8 6 29 15 47 19 29 7 27 8 -20 9 -47 1
-51 -1 -46 -19z"/>
<path d="M1118 42 c-10 -2 -18 -9 -18 -15 0 -7 -4 -6 -10 3 -8 12 -11 13 -19
1 -7 -11 -9 -11 -13 0 -3 8 -9 11 -13 7 -4 -4 -5 -14 -2 -23 8 -18 48 -20 66
-3 11 10 13 10 7 1 -5 -10 5 -13 38 -13 34 0 46 4 49 18 4 16 5 16 6 0 2 -26
19 -22 24 5 l4 22 2 -22 c0 -13 6 -23 12 -23 6 0 9 10 7 23 -3 19 -9 22 -46
23 -23 0 -45 -3 -48 -8 -3 -5 -11 -5 -17 0 -7 5 -20 7 -29 4z"/>
</g>
</svg>
